{
  "accessors": [
    {
      "bufferView": 2,
      "componentType": 5126,
      "count": 65532,
      "max": [
        0.8261319994926453,
        0.14041900634765625,
        4.544689178466797
      ],
      "min": [
        -0.7946469783782959,
        -1.1702719926834106,
        0.42245998978614807
      ],
      "type": "VEC3"
    },
    {
      "bufferView": 2,
      "byteOffset": 786384,
      "componentType": 5126,
      "count": 65532,
      "max": [
        0.9999922513961792,
        0.9999700784683228,
        0.9980754852294922
      ],
      "min": [
        -0.9992585182189941,
        -0.9995666146278381,
        -0.9981236457824707
      ],
      "type": "VEC3"
    },
    {
      "bufferView": 1,
      "componentType": 5126,
      "count": 65532,
      "max": [
        0.9983149766921997,
        0.997409999370575
      ],
      "min": [
        0.001353000057861209,
        0.0013269999762997031
      ],
      "type": "VEC2"
    },
    {
      "bufferView": 0,
      "componentType": 5125,
      "count": 160437,
      "type": "SCALAR"
    },
    {
      "bufferView": 2,
      "byteOffset": 1572768,
      "componentType": 5126,
      "count": 65533,
      "max": [
        0.8230640292167664,
        0.13920800387859344,
        4.446226119995117
      ],
      "min": [
        -0.8046259880065918,
        -1.079393982887268,
        0.3940669894218445
      ],
      "type": "VEC3"
    },
    {
      "bufferView": 2,
      "byteOffset": 2359164,
      "componentType": 5126,
      "count": 65533,
      "max": [
        0.9999264478683472,
        0.9999915361404419,
        0.9976130723953247
      ],
      "min": [
        -0.9999356269836426,
        -0.999885082244873,
        -0.9996549487113953
      ],
      "type": "VEC3"
    },
    {
      "bufferView": 1,
      "byteOffset": 524256,
      "componentType": 5126,
      "count": 65533,
      "max": [
        0.9980149865150452,
        0.9974200129508972
      ],
      "min": [
        0.0013259999686852098,
        0.0013299999991431832
      ],
      "type": "VEC2"
    },
    {
      "bufferView": 0,
      "byteOffset": 641748,
      "componentType": 5125,
      "count": 159978,
      "type": "SCALAR"
    },
    {
      "bufferView": 2,
      "byteOffset": 3145560,
      "componentType": 5126,
      "count": 65532,
      "max": [
        0.8619719743728638,
        -0.6053979992866516,
        4.074364185333252
      ],
      "min": [
        -0.5598909854888916,
        -1.1671489477157593,
        1.0632059574127197
      ],
      "type": "VEC3"
    },
    {
      "bufferView": 2,
      "byteOffset": 3931944,
      "componentType": 5126,
      "count": 65532,
      "max": [
        0.9999967813491821,
        0.9996948838233948,
        0.9996981024742126
      ],
      "min": [
        -0.9997627139091492,
        -0.9999967813491821,
        -0.9997410178184509
      ],
      "type": "VEC3"
    },
    {
      "bufferView": 1,
      "byteOffset": 1048520,
      "componentType": 5126,
      "count": 65532,
      "max": [
        0.9987360239028931,
        0.9978920221328735
      ],
      "min": [
        0.001550000044517219,
        0.0013249999610707164
      ],
      "type": "VEC2"
    },
    {
      "bufferView": 0,
      "byteOffset": 1281660,
      "componentType": 5125,
      "count": 159204,
      "type": "SCALAR"
    },
    {
      "bufferView": 2,
      "byteOffset": 4718328,
      "componentType": 5126,
      "count": 65532,
      "max": [
        0.7678359746932983,
        0.49106600880622864,
        4.058287143707275
      ],
      "min": [
        -0.5425410270690918,
        -1.177582025527954,
        0.11040899902582169
      ],
      "type": "VEC3"
    },
    {
      "bufferView": 2,
      "byteOffset": 5504712,
      "componentType": 5126,
      "count": 65532,
      "max": [
        0.9999938011169434,
        0.9999125003814697,
        0.999961256980896
      ],
      "min": [
        -0.9998243451118469,
        -0.9998343586921692,
        -0.9993945360183716
      ],
      "type": "VEC3"
    },
    {
      "bufferView": 1,
      "byteOffset": 1572776,
      "componentType": 5126,
      "count": 65532,
      "max": [
        0.9983659982681274,
        0.9976000189781189
      ],
      "min": [
        0.0013229999458417296,
        0.0013259999686852098
      ],
      "type": "VEC2"
    },
    {
      "bufferView": 0,
      "byteOffset": 1918476,
      "componentType": 5125,
      "count": 151629,
      "type": "SCALAR"
    },
    {
      "bufferView": 2,
      "byteOffset": 6291096,
      "componentType": 5126,
      "count": 65532,
      "max": [
        0.7678359746932983,
        0.4932810068130493,
        4.400208950042725
      ],
      "min": [
        -0.7331979870796204,
        -1.1778370141983032,
        -0.11208900064229965
      ],
      "type": "VEC3"
    },
    {
      "bufferView": 2,
      "byteOffset": 7077480,
      "componentType": 5126,
      "count": 65532,
      "max": [
        0.9999415874481201,
        0.9996965527534485,
        0.9999334812164307
      ],
      "min": [
        -0.9999997615814209,
        -0.9999982118606567,
        -0.9999934434890747
      ],
      "type": "VEC3"
    },
    {
      "bufferView": 1,
      "byteOffset": 2097032,
      "componentType": 5126,
      "count": 65532,
      "max": [
        0.9982820153236389,
        0.9976059794425964
      ],
      "min": [
        0.00133200001437217,
        0.0013279999839141965
      ],
      "type": "VEC2"
    },
    {
      "bufferView": 0,
      "byteOffset": 2524992,
      "componentType": 5125,
      "count": 155052,
      "type": "SCALAR"
    },
    {
      "bufferView": 2,
      "byteOffset": 7863864,
      "componentType": 5126,
      "count": 65532,
      "max": [
        0.7702509760856628,
        0.38655999302864075,
        4.407599925994873
      ],
      "min": [
        -0.7434269785881042,
        -1.1739089488983154,
        -0.114205002784729
      ],
      "type": "VEC3"
    },
    {
      "bufferView": 2,
      "byteOffset": 8650248,
      "componentType": 5126,
      "count": 65532,
      "max": [
        0.9999997615814209,
        0.9999760389328003,
        0.9994763731956482
      ],
      "min": [
        -0.999998927116394,
        -0.9999991655349731,
        -0.9982280731201172
      ],
      "type": "VEC3"
    },
    {
      "bufferView": 1,
      "byteOffset": 2621288,
      "componentType": 5126,
      "count": 65532,
      "max": [
        0.9982889890670776,
        0.9979079961776733
      ],
      "min": [
        0.0013210000470280647,
        0.0013269999762997031
      ],
      "type": "VEC2"
    },
    {
      "bufferView": 0,
      "byteOffset": 3145200,
      "componentType": 5125,
      "count": 162225,
      "type": "SCALAR"
    },
    {
      "bufferView": 2,
      "byteOffset": 9436632,
      "componentType": 5126,
      "count": 65532,
      "max": [
        0.776494026184082,
        0.5175120234489441,
        4.055976867675781
      ],
      "min": [
        -0.613385021686554,
        -1.1751869916915894,
        -0.07264900207519531
      ],
      "type": "VEC3"
    },
    {
      "bufferView": 2,
      "byteOffset": 10223016,
      "componentType": 5126,
      "count": 65532,
      "max": [
        0.9999988079071045,
        0.9993728399276733,
        0.9999415874481201
      ],
      "min": [
        -0.9999760389328003,
        -1.0,
        -0.9964396953582764
      ],
      "type": "VEC3"
    },
    {
      "bufferView": 1,
      "byteOffset": 3145544,
      "componentType": 5126,
      "count": 65532,
      "max": [
        0.9986379742622375,
        0.9979879856109619
      ],
      "min": [
        0.0013389999512583017,
        0.001323999953456223
      ],
      "type": "VEC2"
    },
    {
      "bufferView": 0,
      "byteOffset": 3794100,
      "componentType": 5125,
      "count": 141948,
      "type": "SCALAR"
    },
    {
      "bufferView": 2,
      "byteOffset": 11009400,
      "componentType": 5126,
      "count": 65534,
      "max": [
        0.7835209965705872,
        0.41314101219177246,
        4.057328224182129
      ],
      "min": [
        -0.5080459713935852,
        -1.165266990661621,
        0.2940489947795868
      ],
      "type": "VEC3"
    },
    {
      "bufferView": 2,
      "byteOffset": 11795808,
      "componentType": 5126,
      "count": 65534,
      "max": [
        0.9999903440475464,
        0.9995134472846985,
        0.9998196959495544
      ],
      "min": [
        -0.9999860525131226,
        -0.9999451637268066,
        -0.9999967813491821
      ],
      "type": "VEC3"
    },
    {
      "bufferView": 1,
      "byteOffset": 3669800,
      "componentType": 5126,
      "count": 65534,
      "max": [
        0.9986439943313599,
        0.9978309869766235
      ],
      "min": [
        0.0013330000219866633,
        0.0013229999458417296
      ],
      "type": "VEC2"
    },
    {
      "bufferView": 0,
      "byteOffset": 4361892,
      "componentType": 5125,
      "count": 153018,
      "type": "SCALAR"
    },
    {
      "bufferView": 2,
      "byteOffset": 12582216,
      "componentType": 5126,
      "count": 65532,
      "max": [
        0.6860290169715881,
        0.372624009847641,
        4.040836811065674
      ],
      "min": [
        -0.440203994512558,
        -1.165932059288025,
        1.077968955039978
      ],
      "type": "VEC3"
    },
    {
      "bufferView": 2,
      "byteOffset": 13368600,
      "componentType": 5126,
      "count": 65532,
      "max": [
        0.9999932050704956,
        0.9997623562812805,
        0.999891996383667
      ],
      "min": [
        -0.999731719493866,
        -0.9593187570571899,
        -0.9999967813491821
      ],
      "type": "VEC3"
    },
    {
      "bufferView": 1,
      "byteOffset": 4194072,
      "componentType": 5126,
      "count": 65532,
      "max": [
        0.9986169934272766,
        0.997668981552124
      ],
      "min": [
        0.0013289999915286899,
        0.0013330000219866633
      ],
      "type": "VEC2"
    },
    {
      "bufferView": 0,
      "byteOffset": 4973964,
      "componentType": 5125,
      "count": 151053,
      "type": "SCALAR"
    },
    {
      "bufferView": 2,
      "byteOffset": 14154984,
      "componentType": 5126,
      "count": 65532,
      "max": [
        0.8790339827537537,
        0.41145598888397217,
        4.54174280166626
      ],
      "min": [
        -0.7913410067558289,
        -1.1784980297088623,
        0.1851769983768463
      ],
      "type": "VEC3"
    },
    {
      "bufferView": 2,
      "byteOffset": 14941368,
      "componentType": 5126,
      "count": 65532,
      "max": [
        0.9998275637626648,
        0.999976396560669,
        0.9988522529602051
      ],
      "min": [
        -0.9999405145645142,
        -0.9999442100524902,
        -0.9995880722999573
      ],
      "type": "VEC3"
    },
    {
      "bufferView": 1,
      "byteOffset": 4718328,
      "componentType": 5126,
      "count": 65532,
      "max": [
        0.9980390071868896,
        0.9976140260696411
      ],
      "min": [
        0.0013200000394135714,
        0.0013299999991431832
      ],
      "type": "VEC2"
    },
    {
      "bufferView": 0,
      "byteOffset": 5578176,
      "componentType": 5125,
      "count": 149463,
      "type": "SCALAR"
    },
    {
      "bufferView": 2,
      "byteOffset": 15727752,
      "componentType": 5126,
      "count": 65532,
      "max": [
        0.6702719926834106,
        0.10217099636793137,
        4.060519218444824
      ],
      "min": [
        -0.6168919801712036,
        -1.1643929481506348,
        2.500663995742798
      ],
      "type": "VEC3"
    },
    {
      "bufferView": 2,
      "byteOffset": 16514136,
      "componentType": 5126,
      "count": 65532,
      "max": [
        0.9999638795852661,
        0.9982092976570129,
        0.9999219179153442
      ],
      "min": [
        -0.9999527931213379,
        -0.9999936819076538,
        -0.9999017715454102
      ],
      "type": "VEC3"
    },
    {
      "bufferView": 1,
      "byteOffset": 5242584,
      "componentType": 5126,
      "count": 65532,
      "max": [
        0.9982889890670776,
        0.9977729916572571
      ],
      "min": [
        0.001323999953456223,
        0.0013259999686852098
      ],
      "type": "VEC2"
    },
    {
      "bufferView": 0,
      "byteOffset": 6176028,
      "componentType": 5125,
      "count": 146742,
      "type": "SCALAR"
    },
    {
      "bufferView": 2,
      "byteOffset": 17300520,
      "componentType": 5126,
      "count": 65533,
      "max": [
        0.7959709763526917,
        0.14041900634765625,
        4.4949798583984375
      ],
      "min": [
        -0.43176600337028503,
        -1.1784980297088623,
        2.5026121139526367
      ],
      "type": "VEC3"
    },
    {
      "bufferView": 2,
      "byteOffset": 18086916,
      "componentType": 5126,
      "count": 65533,
      "max": [
        0.9999485015869141,
        0.9999488592147827,
        0.9996374249458313
      ],
      "min": [
        -0.9999768733978271,
        -0.9999747276306152,
        -0.9998596906661987
      ],
      "type": "VEC3"
    },
    {
      "bufferView": 1,
      "byteOffset": 5766840,
      "componentType": 5126,
      "count": 65533,
      "max": [
        0.9980509877204895,
        0.9975299835205078
      ],
      "min": [
        0.0013340000296011567,
        0.001322000054642558
      ],
      "type": "VEC2"
    },
    {
      "bufferView": 0,
      "byteOffset": 6762996,
      "componentType": 5125,
      "count": 144645,
      "type": "SCALAR"
    },
    {
      "bufferView": 2,
      "byteOffset": 18873312,
      "componentType": 5126,
      "count": 11203,
      "max": [
        0.7059270143508911,
        0.04393799975514412,
        4.030745983123779
      ],
      "min": [
        -0.15619699656963348,
        -1.167343020439148,
        2.5026159286499023
      ],
      "type": "VEC3"
    },
    {
      "bufferView": 2,
      "byteOffset": 19007748,
      "componentType": 5126,
      "count": 11203,
      "max": [
        0.9999061822891235,
        0.9953016638755798,
        0.939871072769165
      ],
      "min": [
        -0.9333370923995972,
        -0.9996513724327087,
        -0.9948695302009583
      ],
      "type": "VEC3"
    },
    {
      "bufferView": 1,
      "byteOffset": 6291104,
      "componentType": 5126,
      "count": 11203,
      "max": [
        0.9980289936065674,
        0.9968019723892212
      ],
      "min": [
        0.013026000000536442,
        0.006765000056475401
      ],
      "type": "VEC2"
    },
    {
      "bufferView": 0,
      "byteOffset": 7341576,
      "componentType": 5125,
      "count": 22932,
      "type": "SCALAR"
    },
    {
      "bufferView": 2,
      "byteOffset": 19142184,
      "componentType": 5126,
      "count": 2180,
      "max": [
        0.6301239728927612,
        0.1829880028963089,
        -0.050818998366594315
      ],
      "min": [
        -0.5828250050544739,
        -1.0204880237579346,
        -0.114205002784729
      ],
      "type": "VEC3"
    },
    {
      "bufferView": 2,
      "byteOffset": 19168344,
      "componentType": 5126,
      "count": 2180,
      "max": [
        0.46641361713409424,
        -0.011199814267456532,
        -0.8835257887840271
      ],
      "min": [
        -0.43552085757255554,
        -0.04900241270661354,
        -0.9995834231376648
      ],
      "type": "VEC3"
    },
    {
      "bufferView": 1,
      "byteOffset": 6380728,
      "componentType": 5126,
      "count": 2180,
      "max": [
        0.5327379703521729,
        0.9702209830284119
      ],
      "min": [
        0.429082989692688,
        0.8658739924430847
      ],
      "type": "VEC2"
    },
    {
      "bufferView": 0,
      "byteOffset": 7433304,
      "componentType": 5125,
      "count": 3165,
      "type": "SCALAR"
    }
  ],
  "asset": {
    "extras": {
      "author": "noe-3d.at (https://sketchfab.com/www.noe-3d.at)",
      "license": "CC-BY-NC-4.0 (http://creativecommons.org/licenses/by-nc/4.0/)",
      "source": "https://sketchfab.com/3d-models/grabfigur-29032680d08a44608637e704073c4eb8",
      "title": "Grabfigur"
    },
    "generator": "Sketchfab-16.64.0",
    "version": "2.0"
  },
  "bufferViews": [
    {
      "buffer": 0,
      "byteLength": 7445964,
      "name": "floatBufferViews",
      "target": 34963
    },
    {
      "buffer": 0,
      "byteLength": 6398168,
      "byteOffset": 7445964,
      "byteStride": 8,
      "name": "floatBufferViews",
      "target": 34962
    },
    {
      "buffer": 0,
      "byteLength": 19194504,
      "byteOffset": 13844132,
      "byteStride": 12,
      "name": "floatBufferViews",
      "target": 34962
    }
  ],
  "buffers": [
    {
      "byteLength": 33038636,
      "uri": "scene.bin"
    }
  ],
  "extensionsUsed": [
    "KHR_materials_specular"
  ],
  "images": [
    {
      "uri": "textures/Engel_O.001_baseColor.png"
    }
  ],
  "materials": [
    {
      "doubleSided": true,
      "extensions": {
        "KHR_materials_specular": {
          "specularColorFactor": [
            1.0,
            1.0,
            1.0
          ],
          "specularFactor": 0.0
        }
      },
      "name": "Engel_O.001",
      "pbrMetallicRoughness": {
        "baseColorTexture": {
          "index": 0
        },
        "metallicFactor": 0.0
      }
    },
    {
      "doubleSided": true,
      "extensions": {
        "KHR_materials_specular": {
          "specularColorFactor": [
            1.0,
            1.0,
            1.0
          ],
          "specularFactor": 0.0
        }
      },
      "name": "bottom",
      "pbrMetallicRoughness": {
        "baseColorFactor": [
          0.18844151144079674,
          0.18844151144079674,
          0.18844151144079674,
          1.0
        ],
        "metallicFactor": 0.0
      }
    }
  ],
  "meshes": [
    {
      "name": "Object_0",
      "primitives": [
        {
          "attributes": {
            "NORMAL": 1,
            "POSITION": 0,
            "TEXCOORD_0": 2
          },
          "indices": 3,
          "material": 0,
          "mode": 4
        }
      ]
    },
    {
      "name": "Object_1",
      "primitives": [
        {
          "attributes": {
            "NORMAL": 5,
            "POSITION": 4,
            "TEXCOORD_0": 6
          },
          "indices": 7,
          "material": 0,
          "mode": 4
        }
      ]
    },
    {
      "name": "Object_2",
      "primitives": [
        {
          "attributes": {
            "NORMAL": 9,
            "POSITION": 8,
            "TEXCOORD_0": 10
          },
          "indices": 11,
          "material": 0,
          "mode": 4
        }
      ]
    },
    {
      "name": "Object_3",
      "primitives": [
        {
          "attributes": {
            "NORMAL": 13,
            "POSITION": 12,
            "TEXCOORD_0": 14
          },
          "indices": 15,
          "material": 0,
          "mode": 4
        }
      ]
    },
    {
      "name": "Object_4",
      "primitives": [
        {
          "attributes": {
            "NORMAL": 17,
            "POSITION": 16,
            "TEXCOORD_0": 18
          },
          "indices": 19,
          "material": 0,
          "mode": 4
        }
      ]
    },
    {
      "name": "Object_5",
      "primitives": [
        {
          "attributes": {
            "NORMAL": 21,
            "POSITION": 20,
            "TEXCOORD_0": 22
          },
          "indices": 23,
          "material": 0,
          "mode": 4
        }
      ]
    },
    {
      "name": "Object_6",
      "primitives": [
        {
          "attributes": {
            "NORMAL": 25,
            "POSITION": 24,
            "TEXCOORD_0": 26
          },
          "indices": 27,
          "material": 0,
          "mode": 4
        }
      ]
    },
    {
      "name": "Object_7",
      "primitives": [
        {
          "attributes": {
            "NORMAL": 29,
            "POSITION": 28,
            "TEXCOORD_0": 30
          },
          "indices": 31,
          "material": 0,
          "mode": 4
        }
      ]
    },
    {
      "name": "Object_8",
      "primitives": [
        {
          "attributes": {
            "NORMAL": 33,
            "POSITION": 32,
            "TEXCOORD_0": 34
          },
          "indices": 35,
          "material": 0,
          "mode": 4
        }
      ]
    },
    {
      "name": "Object_9",
      "primitives": [
        {
          "attributes": {
            "NORMAL": 37,
            "POSITION": 36,
            "TEXCOORD_0": 38
          },
          "indices": 39,
          "material": 0,
          "mode": 4
        }
      ]
    },
    {
      "name": "Object_10",
      "primitives": [
        {
          "attributes": {
            "NORMAL": 41,
            "POSITION": 40,
            "TEXCOORD_0": 42
          },
          "indices": 43,
          "material": 0,
          "mode": 4
        }
      ]
    },
    {
      "name": "Object_11",
      "primitives": [
        {
          "attributes": {
            "NORMAL": 45,
            "POSITION": 44,
            "TEXCOORD_0": 46
          },
          "indices": 47,
          "material": 0,
          "mode": 4
        }
      ]
    },
    {
      "name": "Object_12",
      "primitives": [
        {
          "attributes": {
            "NORMAL": 49,
            "POSITION": 48,
            "TEXCOORD_0": 50
          },
          "indices": 51,
          "material": 0,
          "mode": 4
        }
      ]
    },
    {
      "name": "Object_13",
      "primitives": [
        {
          "attributes": {
            "NORMAL": 53,
            "POSITION": 52,
            "TEXCOORD_0": 54
          },
          "indices": 55,
          "material": 1,
          "mode": 4
        }
      ]
    }
  ],
  "nodes": [
    {
      "children": [
        1
      ],
      "matrix": [
        0.4820639877192434,
        -0.0013344084382129265,
        -2.8976498426487034e-19,
        0.0,
        7.123743414567908e-05,
        0.025735000077531486,
        -0.48137840969342705,
        0.0,
        0.0013325056386347123,
        0.48137657075823626,
        0.025735098848464585,
        0.0,
        0.0,
        0.0,
        0.0,
        1.0
      ],
      "name": "Sketchfab_model"
    },
    {
      "children": [
        2,
        3,
        4,
        5,
        6,
        7,
        8,
        9,
        10,
        11,
        12,
        13,
        14,
        15
      ],
      "name": "Engel_C.obj.cleaner.materialmerger.gles"
    },
    {
      "mesh": 0,
      "name": "Object_2"
    },
    {
      "mesh": 1,
      "name": "Object_3"
    },
    {
      "mesh": 2,
      "name": "Object_4"
    },
    {
      "mesh": 3,
      "name": "Object_5"
    },
    {
      "mesh": 4,
      "name": "Object_6"
    },
    {
      "mesh": 5,
      "name": "Object_7"
    },
    {
      "mesh": 6,
      "name": "Object_8"
    },
    {
      "mesh": 7,
      "name": "Object_9"
    },
    {
      "mesh": 8,
      "name": "Object_10"
    },
    {
      "mesh": 9,
      "name": "Object_11"
    },
    {
      "mesh": 10,
      "name": "Object_12"
    },
    {
      "mesh": 11,
      "name": "Object_13"
    },
    {
      "mesh": 12,
      "name": "Object_14"
    },
    {
      "mesh": 13,
      "name": "Object_15"
    }
  ],
  "samplers": [
    {
      "magFilter": 9729,
      "minFilter": 9987,
      "wrapS": 10497,
      "wrapT": 10497
    }
  ],
  "scene": 0,
  "scenes": [
    {
      "name": "Sketchfab_Scene",
      "nodes": [
        0
      ]
    }
  ],
  "textures": [
    {
      "sampler": 0,
      "source": 0
    }
  ]
}
